<mxfile host="app.diagrams.net" modified="2021-08-17T09:36:24.107Z" agent="5.0 (Macintosh; Intel Mac OS X 10_15_7) AppleWebKit/537.36 (KHTML, like Gecko) Chrome/86.0.4240.193 Safari/537.36" etag="nqkSwlCz1pN6Mxwqn334" version="14.9.6" type="github">
  <diagram id="2Aha3b8NWvN1vokk5OpC" name="Page-1">
    <mxGraphModel dx="946" dy="536" grid="1" gridSize="10" guides="1" tooltips="1" connect="1" arrows="1" fold="1" page="1" pageScale="1" pageWidth="827" pageHeight="1169" math="0" shadow="0">
      <root>
        <mxCell id="0" />
        <mxCell id="1" parent="0" />
        <mxCell id="tUTdqm_jFJjgq1tO928N-3" value="" style="rounded=0;whiteSpace=wrap;html=1;fillColor=#dae8fc;strokeColor=#6c8ebf;" vertex="1" parent="1">
          <mxGeometry x="281" y="70" width="80" height="80" as="geometry" />
        </mxCell>
        <mxCell id="tUTdqm_jFJjgq1tO928N-11" value="主对角线" style="text;html=1;align=center;verticalAlign=middle;resizable=0;points=[];autosize=1;strokeColor=none;" vertex="1" parent="1">
          <mxGeometry x="290" y="30" width="60" height="20" as="geometry" />
        </mxCell>
        <mxCell id="tUTdqm_jFJjgq1tO928N-12" value="副对角线" style="text;html=1;align=center;verticalAlign=middle;resizable=0;points=[];autosize=1;strokeColor=none;" vertex="1" parent="1">
          <mxGeometry x="440" y="30" width="60" height="20" as="geometry" />
        </mxCell>
        <mxCell id="tUTdqm_jFJjgq1tO928N-16" style="edgeStyle=none;rounded=0;orthogonalLoop=1;jettySize=auto;html=1;exitX=0;exitY=0;exitDx=0;exitDy=0;" edge="1" parent="1" source="tUTdqm_jFJjgq1tO928N-3" target="tUTdqm_jFJjgq1tO928N-3">
          <mxGeometry relative="1" as="geometry" />
        </mxCell>
        <mxCell id="tUTdqm_jFJjgq1tO928N-17" style="edgeStyle=none;rounded=0;orthogonalLoop=1;jettySize=auto;html=1;exitX=0;exitY=0;exitDx=0;exitDy=0;" edge="1" parent="1" source="tUTdqm_jFJjgq1tO928N-3" target="tUTdqm_jFJjgq1tO928N-3">
          <mxGeometry relative="1" as="geometry" />
        </mxCell>
        <mxCell id="tUTdqm_jFJjgq1tO928N-18" style="edgeStyle=none;rounded=0;orthogonalLoop=1;jettySize=auto;html=1;exitX=0;exitY=0;exitDx=0;exitDy=0;entryX=1;entryY=1;entryDx=0;entryDy=0;" edge="1" parent="1" source="tUTdqm_jFJjgq1tO928N-3" target="tUTdqm_jFJjgq1tO928N-3">
          <mxGeometry relative="1" as="geometry" />
        </mxCell>
        <mxCell id="tUTdqm_jFJjgq1tO928N-19" value="" style="rounded=0;whiteSpace=wrap;html=1;fillColor=#dae8fc;strokeColor=#6c8ebf;" vertex="1" parent="1">
          <mxGeometry x="430" y="70" width="80" height="80" as="geometry" />
        </mxCell>
        <mxCell id="tUTdqm_jFJjgq1tO928N-20" style="edgeStyle=none;rounded=0;orthogonalLoop=1;jettySize=auto;html=1;exitX=0;exitY=0;exitDx=0;exitDy=0;" edge="1" parent="1" source="tUTdqm_jFJjgq1tO928N-19" target="tUTdqm_jFJjgq1tO928N-19">
          <mxGeometry relative="1" as="geometry" />
        </mxCell>
        <mxCell id="tUTdqm_jFJjgq1tO928N-21" style="edgeStyle=none;rounded=0;orthogonalLoop=1;jettySize=auto;html=1;exitX=0;exitY=0;exitDx=0;exitDy=0;" edge="1" parent="1" source="tUTdqm_jFJjgq1tO928N-19" target="tUTdqm_jFJjgq1tO928N-19">
          <mxGeometry relative="1" as="geometry" />
        </mxCell>
        <mxCell id="tUTdqm_jFJjgq1tO928N-23" style="edgeStyle=none;rounded=0;orthogonalLoop=1;jettySize=auto;html=1;exitX=1;exitY=0;exitDx=0;exitDy=0;entryX=0;entryY=1;entryDx=0;entryDy=0;" edge="1" parent="1" source="tUTdqm_jFJjgq1tO928N-19" target="tUTdqm_jFJjgq1tO928N-19">
          <mxGeometry relative="1" as="geometry" />
        </mxCell>
      </root>
    </mxGraphModel>
  </diagram>
</mxfile>
